# This file uses centimeters as units for non-parametric coordinates.

mtllib cylinder_muscle_normalized.mtl
g default
v -0.500000 -0.133333 0.000000
v -0.433333 -0.133333 0.000000
v -0.366667 -0.133333 0.000000
v -0.300000 -0.133333 0.000000
v -0.233333 -0.133333 0.000000
v -0.166667 -0.133333 0.000000
v -0.100000 -0.133333 0.000000
v -0.033333 -0.133333 0.000000
v 0.033333 -0.133333 0.000000
v 0.100000 -0.133333 0.000000
v 0.166667 -0.133333 0.000000
v 0.233333 -0.133333 0.000000
v 0.300000 -0.133333 0.000000
v 0.366667 -0.133333 0.000000
v 0.433333 -0.133333 0.000000
v 0.500000 -0.133333 0.000000
v -0.500000 -0.066667 0.000000
v -0.433333 -0.066667 0.000000
v -0.366667 -0.066667 0.000000
v -0.300000 -0.066667 0.000000
v -0.233333 -0.066667 0.000000
v -0.166667 -0.066667 0.000000
v -0.100000 -0.066667 0.000000
v -0.033333 -0.066667 0.000000
v 0.033333 -0.066667 0.000000
v 0.100000 -0.066667 0.000000
v 0.166667 -0.066667 0.000000
v 0.233333 -0.066667 0.000000
v 0.300000 -0.066667 0.000000
v 0.366667 -0.066667 0.000000
v 0.433333 -0.066667 0.000000
v 0.500000 -0.066667 0.000000
v -0.500000 0.000000 0.000000
v -0.433333 0.000000 0.000000
v -0.366667 0.000000 0.000000
v -0.300000 0.000000 0.000000
v -0.233333 0.000000 0.000000
v -0.166667 0.000000 0.000000
v -0.100000 0.000000 0.000000
v -0.033333 0.000000 0.000000
v 0.033333 0.000000 0.000000
v 0.100000 0.000000 0.000000
v 0.166667 0.000000 0.000000
v 0.233333 0.000000 0.000000
v 0.300000 0.000000 0.000000
v 0.366667 0.000000 0.000000
v 0.433333 0.000000 0.000000
v 0.500000 0.000000 0.000000
v -0.500000 0.066666 0.000000
v -0.433333 0.066666 0.000000
v -0.366667 0.066666 0.000000
v -0.300000 0.066666 0.000000
v -0.233333 0.066666 0.000000
v -0.166667 0.066666 0.000000
v -0.100000 0.066666 0.000000
v -0.033333 0.066666 0.000000
v 0.033333 0.066666 0.000000
v 0.100000 0.066666 0.000000
v 0.166667 0.066666 0.000000
v 0.233333 0.066666 0.000000
v 0.300000 0.066666 0.000000
v 0.366667 0.066666 0.000000
v 0.433333 0.066666 0.000000
v 0.500000 0.066666 0.000000
v -0.500000 0.133333 0.000000
v -0.433333 0.133333 0.000000
v -0.366667 0.133333 0.000000
v -0.300000 0.133333 0.000000
v -0.233333 0.133333 0.000000
v -0.166667 0.133333 0.000000
v -0.100000 0.133333 0.000000
v -0.033333 0.133333 0.000000
v 0.033333 0.133333 0.000000
v 0.100000 0.133333 0.000000
v 0.166667 0.133333 0.000000
v 0.233333 0.133333 0.000000
v 0.300000 0.133333 0.000000
v 0.366667 0.133333 0.000000
v 0.433333 0.133333 0.000000
v 0.500000 0.133333 0.000000
vt 0.000000 0.000000
vt 0.066667 0.000000
vt 0.133333 0.000000
vt 0.200000 0.000000
vt 0.266667 0.000000
vt 0.333333 0.000000
vt 0.400000 0.000000
vt 0.466667 0.000000
vt 0.533333 0.000000
vt 0.600000 0.000000
vt 0.666667 0.000000
vt 0.733333 0.000000
vt 0.800000 0.000000
vt 0.866667 0.000000
vt 0.933333 0.000000
vt 1.000000 0.000000
vt 0.000000 0.066666
vt 0.066667 0.066666
vt 0.133333 0.066666
vt 0.200000 0.066666
vt 0.266667 0.066666
vt 0.333333 0.066666
vt 0.400000 0.066666
vt 0.466667 0.066666
vt 0.533333 0.066666
vt 0.600000 0.066666
vt 0.666667 0.066666
vt 0.733333 0.066666
vt 0.800000 0.066666
vt 0.866667 0.066666
vt 0.933333 0.066666
vt 1.000000 0.066666
vt 0.000000 0.133333
vt 0.066667 0.133333
vt 0.133333 0.133333
vt 0.200000 0.133333
vt 0.266667 0.133333
vt 0.333333 0.133333
vt 0.400000 0.133333
vt 0.466667 0.133333
vt 0.533333 0.133333
vt 0.600000 0.133333
vt 0.666667 0.133333
vt 0.733333 0.133333
vt 0.800000 0.133333
vt 0.866667 0.133333
vt 0.933333 0.133333
vt 1.000000 0.133333
vt 0.000000 0.199999
vt 0.066667 0.199999
vt 0.133333 0.199999
vt 0.200000 0.199999
vt 0.266667 0.199999
vt 0.333333 0.199999
vt 0.400000 0.199999
vt 0.466667 0.199999
vt 0.533333 0.199999
vt 0.600000 0.199999
vt 0.666667 0.199999
vt 0.733333 0.199999
vt 0.800000 0.199999
vt 0.866667 0.199999
vt 0.933333 0.199999
vt 1.000000 0.199999
vt 0.000000 0.266666
vt 0.066667 0.266666
vt 0.133333 0.266666
vt 0.200000 0.266666
vt 0.266667 0.266666
vt 0.333333 0.266666
vt 0.400000 0.266666
vt 0.466667 0.266666
vt 0.533333 0.266666
vt 0.600000 0.266666
vt 0.666667 0.266666
vt 0.733333 0.266666
vt 0.800000 0.266666
vt 0.866667 0.266666
vt 0.933333 0.266666
vt 1.000000 0.266666
vn 0.000000 0.000000 1.000000
vn 0.000000 0.000000 1.000000
vn 0.000000 0.000000 1.000000
vn 0.000000 0.000000 1.000000
vn 0.000000 0.000000 1.000000
vn 0.000000 0.000000 1.000000
vn 0.000000 0.000000 1.000000
vn 0.000000 0.000000 1.000000
vn 0.000000 -0.000000 1.000000
vn 0.000000 0.000000 1.000000
vn 0.000000 0.000000 1.000000
vn 0.000000 0.000000 1.000000
vn 0.000000 0.000000 1.000000
vn 0.000000 0.000000 1.000000
vn 0.000000 0.000000 1.000000
vn 0.000000 0.000000 1.000000
vn 0.000000 0.000000 1.000000
vn 0.000000 0.000000 1.000000
vn 0.000000 0.000000 1.000000
vn 0.000000 0.000000 1.000000
vn 0.000000 0.000000 1.000000
vn 0.000000 -0.000000 1.000000
vn 0.000000 0.000000 1.000000
vn 0.000000 0.000000 1.000000
vn 0.000000 0.000000 1.000000
vn 0.000000 0.000000 1.000000
vn 0.000000 -0.000000 1.000000
vn 0.000000 0.000000 1.000000
vn 0.000000 -0.000000 1.000000
vn 0.000000 0.000000 1.000000
vn 0.000000 0.000000 1.000000
vn 0.000000 0.000000 1.000000
vn 0.000000 0.000000 1.000000
vn 0.000000 0.000000 1.000000
vn 0.000000 0.000000 1.000000
vn 0.000000 0.000000 1.000000
vn 0.000000 0.000000 1.000000
vn 0.000000 0.000000 1.000000
vn 0.000000 0.000000 1.000000
vn 0.000000 0.000000 1.000000
vn 0.000000 0.000000 1.000000
vn 0.000000 0.000000 1.000000
vn 0.000000 0.000000 1.000000
vn 0.000000 0.000000 1.000000
vn 0.000000 0.000000 1.000000
vn 0.000000 -0.000000 1.000000
vn 0.000000 -0.000000 1.000000
vn 0.000000 0.000000 1.000000
vn 0.000000 -0.000000 1.000000
vn 0.000000 0.000000 1.000000
vn 0.000000 0.000000 1.000000
vn 0.000000 0.000000 1.000000
vn 0.000000 0.000000 1.000000
vn 0.000000 0.000000 1.000000
vn 0.000000 0.000000 1.000000
vn 0.000000 0.000000 1.000000
vn 0.000000 0.000000 1.000000
vn 0.000000 0.000000 1.000000
vn 0.000000 0.000000 1.000000
vn 0.000000 0.000000 1.000000
vn 0.000000 0.000000 1.000000
vn 0.000000 -0.000000 1.000000
vn 0.000000 0.000000 1.000000
vn 0.000000 0.000000 1.000000
vn 0.000000 0.000000 1.000000
vn 0.000000 0.000000 1.000000
vn 0.000000 0.000000 1.000000
vn 0.000000 0.000000 1.000000
vn 0.000000 -0.000000 1.000000
vn 0.000000 -0.000000 1.000000
vn 0.000000 0.000000 1.000000
vn 0.000000 0.000000 1.000000
vn 0.000000 0.000000 1.000000
vn 0.000000 0.000000 1.000000
vn 0.000000 0.000000 1.000000
vn 0.000000 0.000000 1.000000
vn 0.000000 0.000000 1.000000
vn 0.000000 0.000000 1.000000
vn 0.000000 0.000000 1.000000
vn 0.000000 -0.000000 1.000000
s 1
g pPlane1
usemtl initialShadingGroup
f 1/1/1 2/2/2 17/17/3
f 17/17/3 2/2/2 18/18/4
f 2/2/2 3/3/5 18/18/4
f 18/18/4 3/3/5 19/19/6
f 3/3/5 4/4/7 19/19/6
f 19/19/6 4/4/7 20/20/8
f 4/4/7 5/5/9 20/20/8
f 20/20/8 5/5/9 21/21/10
f 5/5/9 6/6/11 21/21/10
f 21/21/10 6/6/11 22/22/12
f 6/6/11 7/7/13 22/22/12
f 22/22/12 7/7/13 23/23/14
f 7/7/13 8/8/15 23/23/14
f 23/23/14 8/8/15 24/24/16
f 8/8/15 9/9/17 24/24/16
f 24/24/16 9/9/17 25/25/18
f 9/9/17 10/10/19 25/25/18
f 25/25/18 10/10/19 26/26/20
f 10/10/19 11/11/21 26/26/20
f 26/26/20 11/11/21 27/27/22
f 11/11/21 12/12/23 27/27/22
f 27/27/22 12/12/23 28/28/24
f 12/12/23 13/13/25 28/28/24
f 28/28/24 13/13/25 29/29/26
f 13/13/25 14/14/27 29/29/26
f 29/29/26 14/14/27 30/30/28
f 14/14/27 15/15/29 30/30/28
f 30/30/28 15/15/29 31/31/30
f 15/15/29 16/16/31 31/31/30
f 31/31/30 16/16/31 32/32/32
f 17/17/3 18/18/4 33/33/33
f 33/33/33 18/18/4 34/34/34
f 18/18/4 19/19/6 34/34/34
f 34/34/34 19/19/6 35/35/35
f 19/19/6 20/20/8 35/35/35
f 35/35/35 20/20/8 36/36/36
f 20/20/8 21/21/10 36/36/36
f 36/36/36 21/21/10 37/37/37
f 21/21/10 22/22/12 37/37/37
f 37/37/37 22/22/12 38/38/38
f 22/22/12 23/23/14 38/38/38
f 38/38/38 23/23/14 39/39/39
f 23/23/14 24/24/16 39/39/39
f 39/39/39 24/24/16 40/40/40
f 24/24/16 25/25/18 40/40/40
f 40/40/40 25/25/18 41/41/41
f 25/25/18 26/26/20 41/41/41
f 41/41/41 26/26/20 42/42/42
f 26/26/20 27/27/22 42/42/42
f 42/42/42 27/27/22 43/43/43
f 27/27/22 28/28/24 43/43/43
f 43/43/43 28/28/24 44/44/44
f 28/28/24 29/29/26 44/44/44
f 44/44/44 29/29/26 45/45/45
f 29/29/26 30/30/28 45/45/45
f 45/45/45 30/30/28 46/46/46
f 30/30/28 31/31/30 46/46/46
f 46/46/46 31/31/30 47/47/47
f 31/31/30 32/32/32 47/47/47
f 47/47/47 32/32/32 48/48/48
f 33/33/33 34/34/34 49/49/49
f 49/49/49 34/34/34 50/50/50
f 34/34/34 35/35/35 50/50/50
f 50/50/50 35/35/35 51/51/51
f 35/35/35 36/36/36 51/51/51
f 51/51/51 36/36/36 52/52/52
f 36/36/36 37/37/37 52/52/52
f 52/52/52 37/37/37 53/53/53
f 37/37/37 38/38/38 53/53/53
f 53/53/53 38/38/38 54/54/54
f 38/38/38 39/39/39 54/54/54
f 54/54/54 39/39/39 55/55/55
f 39/39/39 40/40/40 55/55/55
f 55/55/55 40/40/40 56/56/56
f 40/40/40 41/41/41 56/56/56
f 56/56/56 41/41/41 57/57/57
f 41/41/41 42/42/42 57/57/57
f 57/57/57 42/42/42 58/58/58
f 42/42/42 43/43/43 58/58/58
f 58/58/58 43/43/43 59/59/59
f 43/43/43 44/44/44 59/59/59
f 59/59/59 44/44/44 60/60/60
f 44/44/44 45/45/45 60/60/60
f 60/60/60 45/45/45 61/61/61
f 45/45/45 46/46/46 61/61/61
f 61/61/61 46/46/46 62/62/62
f 46/46/46 47/47/47 62/62/62
f 62/62/62 47/47/47 63/63/63
f 47/47/47 48/48/48 63/63/63
f 63/63/63 48/48/48 64/64/64
f 49/49/49 50/50/50 65/65/65
f 65/65/65 50/50/50 66/66/66
f 50/50/50 51/51/51 66/66/66
f 66/66/66 51/51/51 67/67/67
f 51/51/51 52/52/52 67/67/67
f 67/67/67 52/52/52 68/68/68
f 52/52/52 53/53/53 68/68/68
f 68/68/68 53/53/53 69/69/69
f 53/53/53 54/54/54 69/69/69
f 69/69/69 54/54/54 70/70/70
f 54/54/54 55/55/55 70/70/70
f 70/70/70 55/55/55 71/71/71
f 55/55/55 56/56/56 71/71/71
f 71/71/71 56/56/56 72/72/72
f 56/56/56 57/57/57 72/72/72
f 72/72/72 57/57/57 73/73/73
f 57/57/57 58/58/58 73/73/73
f 73/73/73 58/58/58 74/74/74
f 58/58/58 59/59/59 74/74/74
f 74/74/74 59/59/59 75/75/75
f 59/59/59 60/60/60 75/75/75
f 75/75/75 60/60/60 76/76/76
f 60/60/60 61/61/61 76/76/76
f 76/76/76 61/61/61 77/77/77
f 61/61/61 62/62/62 77/77/77
f 77/77/77 62/62/62 78/78/78
f 62/62/62 63/63/63 78/78/78
f 78/78/78 63/63/63 79/79/79
f 63/63/63 64/64/64 79/79/79
f 79/79/79 64/64/64 80/80/80
